<svg version="1.1" xmlns="http://www.w3.org/2000/svg" viewBox="0 0 1300 940">
<style type="text/css">
	.st0{fill:#FFFFFF;}
	.st1{fill:#19233E;}
	.st2{fill:#124070;}
	.st3{fill:#1C345B;}
	.st4{fill:#182C4B;}
	.st5{fill:#173458;}
	.st6{fill:#165BA4;}
	.st7{fill:#1871A5;}
	.st8{fill:#18213B;}
	.st9{fill:#13579C;}
	.st10{fill:#1B779C;}
	.st11{fill:#13838B;}
	.st12{fill:#179FDB;}
	.st13{fill:#163B68;}
	.st14{fill:#153F6F;}
	.st15{fill:#109B93;}
	.st16{fill:#182845;}
	.st17{fill:#1B75A0;}
	.st18{fill:#074579;}
	.st19{fill:#17243F;}
	.st20{fill:#10467E;}
	.st21{fill:#15818C;}
	.st22{fill:#176CAF;}
	.st23{fill:#143D6B;}
	.st24{fill:#50B7B1;}
	.st25{fill:#59BCB1;}
	.st26{fill:#0085A8;}
	.st27{fill:#3668B0;}
	.st28{fill:#75C4B8;}
	.st29{fill:#223B61;}
	.st30{fill:#3BABBA;}
	.st31{fill:#13549A;}
	.st32{fill:#197899;}
	.st33{fill:#183051;}
	.st34{fill:#CAE3CF;}
	.st35{fill:#17213A;}
	.st36{fill:#DDE7D2;}
	.st37{fill:#95CFC1;}
	.st38{fill:#B7DCC9;}
	.st39{fill:#85C9BC;}
	.st40{fill:#D1E4CF;}
	.st41{fill:#16385E;}
	.st42{fill:#F2EBD5;}
	.st43{fill:#11406F;}
	.st44{fill:#197797;}
    .st45{opacity: 0}
</style>
<g id="Hexagon_background">
	<polygon class="st0 st45" points="1149.6,74.5 1085.1,35.3 1033.9,4.1 872.9,-93.9 754.1,-166.2 650,-229.6 449.6,-107.6 185.4,53.3 
		140.7,80.4 75,120.4 75,195.5 75,525.4 75,588.6 75,651.7 75,672.1 75,820.4 176.2,882 231.5,915.7 280.3,945.3 348.1,986.6 
		389,1011.5 650,1170.4 731.1,1121 995.3,960.2 1071.1,914.1 1107.7,891.8 1225,820.4 1225,681.9 1225,619.3 1225,331.2 1225,126.8 
		1225,120.4 	"/>
</g>
<g id="Hexagon">
	<g>
		<polygon class="st1" points="1023.6,708.7 679.2,915.2 341.1,741.7 347.4,361.7 691.8,155.3 1029.9,328.8 		"/>
		
			<rect x="697.5" y="-7.1" transform="matrix(0.5197 -0.8543 0.8543 0.5197 203.921 778.6959)" class="st2" width="194" height="430.2"/>
		
			<rect x="409.1" y="516.2" transform="matrix(0.5197 -0.8543 0.8543 0.5197 -381.7219 783.5914)" class="st2" width="194" height="430.2"/>
		
			<rect x="278.1" y="513.8" transform="matrix(5.670587e-02 -0.9984 0.9984 5.670587e-02 -258.4798 948.1096)" class="st2" width="188.7" height="194"/>
		<polygon class="st3" points="1036.2,612.5 1036.2,705.5 957.4,753.5 888.1,648.1 891,574.5 964.1,572.5 		"/>
		<polygon class="st4" points="1036.2,570.4 1036.2,612.5 964.1,572.5 		"/>
		<polygon class="st5" points="1036.2,376.9 1036.2,570.4 964.1,572.5 892.7,532.9 894.4,492.3 		"/>
		<polygon class="st2" points="1036.2,239.6 1036.2,376.9 894.4,492.3 904.2,249.7 908.8,247.2 		"/>
		<polygon class="st6" points="1036.2,235.3 1036.2,239.6 908.8,247.2 985.6,204.5 		"/>
		<polygon class="st7" points="985.6,204.5 908.8,247.2 904.3,247.5 905.1,226.1 942.3,178.1 		"/>
		<polygon class="st5" points="964.1,572.5 891,574.5 892.7,532.9 		"/>
		<polygon class="st8" points="888.1,648.1 957.4,753.5 932.9,768.4 883.2,768.5 		"/>
		<polygon class="st9" points="942.3,178.1 905.1,226.1 907.9,157.2 		"/>
		<polygon class="st1" points="932.9,768.4 882,799.4 883.2,768.5 		"/>
		<polygon class="st10" points="907.9,157.2 905.1,226.1 887.8,248.4 703.9,259.4 799.7,91.3 		"/>
		<polygon class="st11" points="905.1,226.1 904.3,247.5 887.8,248.4 		"/>
		<polygon class="st12" points="904.3,247.5 904.2,249.7 873.6,266.7 887.8,248.4 		"/>
		<polygon class="st7" points="904.2,249.7 894.4,492.3 864.1,517 765.9,462.5 745.7,431.9 873.6,266.7 		"/>
		<polygon class="st5" points="894.4,492.3 892.7,532.9 864.1,517 		"/>
		<polygon class="st13" points="892.7,532.9 891,574.5 840.6,575.9 823.5,550 864.1,517 		"/>
		<polygon class="st2" points="840.6,575.9 837.6,649.5 790.1,577.4 		"/>
		<polygon class="st14" points="888.1,648.1 883.2,768.5 633.7,769 610.4,723.4 789.9,577.4 840.6,575.9 		"/>
		<polygon class="st15" points="887.8,248.4 873.6,266.7 700.4,363.1 670.6,317.8 703.9,259.4 		"/>
		<polygon class="st16" points="883.2,768.5 882,799.4 704.5,907.5 633.7,769 		"/>
		<polygon class="st17" points="873.6,266.7 745.7,431.9 700.4,363.1 		"/>
		<polygon class="st18" points="864.1,517 823.5,550 765.9,462.5 		"/>
		<polygon class="st19" points="840.6,575.9 789.9,577.4 823.5,550 		"/>
		<polygon class="st20" points="765.9,462.5 823.5,550 789.9,577.4 629.5,581.9 735.2,445.5 		"/>
		<polygon class="st21" points="799.7,91.3 703.9,259.4 634.9,263.6 582,183.2 719.9,42.8 		"/>
		<polygon class="st19" points="789.9,577.4 610.4,723.4 574.4,653 629.5,581.9 		"/>
		<polygon class="st22" points="745.7,431.9 765.9,462.5 735.2,445.5 		"/>
		<polygon class="st6" points="745.7,431.9 735.2,445.5 643.6,394.7 700.4,363.1 		"/>
		<polygon class="st23" points="735.2,445.5 629.5,581.9 539.4,584.4 529.5,565.2 618.9,408.4 643.6,394.7 		"/>
		<polygon class="st24" points="650,0.2 719.9,42.8 582,183.2 515.4,82.1 		"/>
		<polygon class="st1" points="633.7,769 704.5,907.5 650,940.6 474.7,833.9 554.2,769.2 		"/>
		<polygon class="st25" points="703.9,259.4 670.6,317.8 634.9,263.6 		"/>
		<polygon class="st26" points="670.6,317.8 700.4,363.1 643.6,394.7 630.8,387.6 		"/>
		<polygon class="st15" points="670.6,317.8 630.8,387.6 469.3,298 494.9,271.9 634.9,263.6 		"/>
		<polygon class="st27" points="643.6,394.7 618.9,408.4 630.8,387.6 		"/>
		<polygon class="st28" points="634.9,263.6 494.9,271.9 582,183.2 		"/>
		<polygon class="st29" points="610.4,723.4 633.7,769 554.2,769.2 		"/>
		<polygon class="st30" points="630.8,387.6 618.9,408.4 486.9,481.8 419.1,349.1 469.3,298 		"/>
		<polygon class="st31" points="629.5,581.9 574.4,653 539.4,584.4 		"/>
		<polygon class="st32" points="618.9,408.4 529.5,565.2 486.9,481.8 		"/>
		<polygon class="st33" points="610.4,723.4 554.2,769.2 484.3,769.3 574.4,653 		"/>
		<polygon class="st34" points="582,183.2 494.9,271.9 429.4,275.9 362.8,238.9 337.9,190.2 515.4,82.1 		"/>
		<polygon class="st4" points="574.4,653 484.3,769.3 413,769.4 518.2,585 539.4,584.4 		"/>
		<polygon class="st2" points="554.2,769.2 474.7,833.9 447.2,817.2 484.3,769.3 		"/>
		<polygon class="st35" points="529.5,565.2 539.4,584.4 518.2,585 		"/>
		<polygon class="st22" points="486.9,481.8 529.5,565.2 518.2,585 289.8,591.5 		"/>
		<polygon class="st2" points="518.2,585 413,769.4 368.9,769.5 331.7,746.9 280,596.9 289.8,591.5 		"/>
		<polygon class="st36" points="494.9,271.9 469.3,298 429.4,275.9 		"/>
		<polygon class="st37" points="419.1,349.1 486.9,481.8 289.8,591.5 278.2,591.8 263.8,549.8 263.8,507.4 		"/>
		<polygon class="st4" points="484.3,769.3 447.2,817.2 401.6,789.4 413,769.4 		"/>
		<polygon class="st38" points="469.3,298 419.1,349.1 383.1,278.6 429.4,275.9 		"/>
		<polygon class="st39" points="362.8,238.9 429.4,275.9 383.1,278.6 		"/>
		<polygon class="st40" points="419.1,349.1 263.8,507.4 263.8,285.8 383.1,278.6 		"/>
		<polygon class="st41" points="413,769.4 401.6,789.4 368.9,769.5 		"/>
		<polygon class="st42" points="362.8,238.9 383.1,278.6 263.8,285.8 263.8,235.3 307.9,208.4 		"/>
		<polygon class="st36" points="337.9,190.2 362.8,238.9 307.9,208.4 		"/>
		<polygon class="st6" points="280,596.9 331.7,746.9 263.8,705.5 263.8,605.9 		"/>
		<polygon class="st39" points="289.8,591.5 280,596.9 278.2,591.8 		"/>
		<polygon class="st43" points="278.2,591.8 280,596.9 263.8,605.9 263.8,592.2 		"/>
		<polygon class="st44" points="263.8,549.8 278.2,591.8 263.8,592.2 		"/>
	</g>
</g>
<g id="Swirl">
	<g>
		<path class="st0" d="M591.6,545.5c-2.8,9.1-7.3,17.7-13.4,25.1c-6,7.4-13.5,13.6-21.8,18.2c-8.3,4.6-17.6,7.5-27.1,8.6
			c-9.5,1.1-19.2,0.3-28.3-2.3c-1.2-0.3-2.2-0.6-3.3-1c-1-0.3-2.1-0.7-3.1-1.1l-3.1-1.2l-3-1.3c-4-1.9-7.9-4-11.6-6.5
			c-3.7-2.5-7.2-5.2-10.5-8.3c-3.3-3-6.3-6.3-9.1-9.8c-11-13.9-17.7-31.3-18.6-49.2c-0.5-8.9,0.5-17.9,2.8-26.5
			c0.3-1.1,0.6-2.2,0.9-3.2l1-3c0.6-2,1.4-3.9,2.2-5.9c1.6-3.9,3.4-7.7,5.5-11.4c2-3.7,4.4-7.2,6.8-10.6c2.5-3.4,5.2-6.6,8.1-9.7
			c5.8-6.1,12.4-11.5,19.5-15.9c7.1-4.5,14.8-8,22.8-10.7c8-2.6,16.4-4.2,24.9-4.8c8.5-0.5,17,0,25.3,1.5c2.1,0.4,4.2,0.8,6.2,1.4
			c2,0.5,4.1,1.1,6,1.7c3.8,1.2,7.6,2.6,11.3,4.1c14.8,6.2,28.5,15.6,39.7,27.2c11.3,11.6,20.2,25.4,26.1,40.5
			c6,15.1,8.9,31.4,8.5,47.7c-0.2,8.2-1.2,16.3-3,24.2c-0.4,2-1,3.9-1.5,5.9l-0.4,1.5l-0.4,1.4l-0.9,2.8l-0.9,2.8
			c-0.3,0.9-0.7,1.8-1,2.7c-0.7,1.8-1.3,3.7-2.1,5.5c-2.9,7.2-6.5,14.2-10.6,20.9c-4,6.7-8.7,13-13.8,19
			c-5.1,5.9-10.7,11.5-16.7,16.6c-6,5-12.4,9.6-19.1,13.7c-6.7,4.1-13.8,7.6-21,10.6c-7.3,3-14.8,5.4-22.5,7.2
			c-7.7,1.8-15.5,2.9-23.4,3.5c-7.9,0.5-15.9,0.4-23.8-0.3c-7.9-0.7-15.7-2.1-23.4-4.1l-2.9-0.7l-1.4-0.4l-1.4-0.4l-5.4-1.7
			c-1.8-0.5-3.6-1.2-5.4-1.9c-1.8-0.7-3.6-1.3-5.4-2c-14.1-5.7-27.7-13.2-40-22.3c-12.3-9.2-23.5-19.8-33.1-31.8
			c-4.9-5.9-9.2-12.3-13.4-18.8c-1.9-3.3-4-6.6-5.7-10c-0.9-1.7-1.8-3.4-2.7-5.1l-2.5-5.2c-0.4-0.9-0.8-1.7-1.2-2.6l-1.1-2.7
			c-0.7-1.8-1.5-3.6-2.2-5.4l-1.9-5.5c-0.3-0.9-0.7-1.8-1-2.7l-0.8-2.8l-1.7-5.6l-1.4-5.6l-0.7-2.8l-0.6-2.8l-1.1-5.7l-0.9-5.8
			l-0.4-2.9c-0.1-1-0.2-1.9-0.3-2.9l-0.6-5.8c-0.1-1.9-0.2-3.9-0.3-5.8c-0.3-3.9-0.2-7.8-0.2-11.7c0-1.9,0.2-3.9,0.2-5.8
			c0.1-1.9,0.1-3.9,0.4-5.8c0.4-3.9,0.7-7.8,1.4-11.6c0.3-1.9,0.6-3.9,0.9-5.8l1.2-5.7l0.6-2.9l0.7-2.8l1.5-5.7
			c1.1-3.7,2.2-7.3,3.4-10.9c4.9-14.4,11.4-28.2,19.1-41.1c7.7-12.9,16.6-24.9,26.2-36.1c9.6-11.2,20-21.6,30.9-31.2
			c21.9-19.3,46.2-35.5,72.1-48.7c3.2-1.6,6.5-3.3,9.8-4.8l9.9-4.5c6.7-2.8,13.4-5.5,20.3-7.9c13.7-4.8,27.7-8.9,41.9-11.9
			c14.2-3,28.6-5,43.1-6.1c14.5-1,29-1.1,43.5-0.4l-3.8-0.1c28.4-0.4,57.5,2.2,86.3,8.8c1.8,0.4,3.6,0.8,5.4,1.2l5.4,1.5
			c3.6,1,7.2,1.9,10.8,3l10.7,3.5c1.8,0.6,3.6,1.1,5.3,1.8l5.3,2l5.3,2c1.8,0.7,3.5,1.3,5.2,2.1l10.4,4.6c1.7,0.7,3.4,1.6,5.2,2.5
			l5.1,2.6l5.1,2.6l5,2.8l5,2.8l2.5,1.4l2.5,1.5l9.8,6.2l9.5,6.7c1.6,1.1,3.1,2.3,4.7,3.5l4.6,3.6c12.2,9.6,23.6,20.2,34.1,31.8
			c10.4,11.6,19.9,24,27.9,37.3c8,13.3,14.6,27.3,19.8,41.7c5.2,14.4,9,29.2,11.4,44.1c0.4,1.9,0.6,3.7,0.9,5.6l0.7,5.6
			c0.3,1.9,0.4,3.7,0.6,5.6l0.5,5.6c0.2,1.9,0.3,3.7,0.4,5.6l0.3,5.6c0,1,0.1,1.8,0.1,2.8l0,3c0,2,0,4,0,6l-0.3,6l-0.1,3l-0.3,3
			l-0.6,6c-0.2,2-0.6,4-0.8,6c-0.5,4-1.4,7.9-2.2,11.8c-0.4,2-0.9,3.9-1.4,5.8c-0.5,1.9-1,3.9-1.6,5.8l-1.8,5.8
			c-0.6,1.9-1.3,3.8-2,5.7c-1.3,3.8-2.9,7.5-4.4,11.2c-3.3,7.3-6.9,14.4-11.1,21.2l-1.5,2.6c-0.5,0.8-1.1,1.7-1.6,2.5l-3.3,5
			l-3.5,4.8L927,619l-1.9,2.3l-3.8,4.6l-4,4.4c-0.7,0.7-1.3,1.5-2,2.2l-2.1,2.1c-1.4,1.4-2.8,2.8-4.2,4.2
			c-11.5,10.9-24.2,20.6-38.1,28.2c-6.9,3.9-14.1,7.2-21.4,10.1c-3.7,1.4-7.4,2.8-11.2,4c-1.9,0.6-3.7,1.2-5.7,1.7l-5.7,1.5
			c-1.9,0.5-3.8,0.9-5.8,1.3c-1.9,0.4-3.8,0.9-5.8,1.2c-3.9,0.6-7.8,1.3-11.7,1.7c-2,0.2-3.9,0.4-5.9,0.6l-5.9,0.4l-2.9,0.2l-3.1,0
			c-2,0-4.1,0.1-6.1,0c-8.2-0.2-16.3-1.1-24.4-2.6c-8-1.5-16-3.7-23.6-6.5c-7.7-2.8-15.1-6.3-22.2-10.3c-7.1-4-13.8-8.6-20.1-13.7
			c-6.3-5.1-12.3-10.6-17.6-16.7c-5.4-6-10.3-12.5-14.7-19.3c-4.4-6.8-8.2-14-11.3-21.4c-3.2-7.4-5.8-15.1-7.7-22.9
			c-1.9-7.8-3.2-15.8-3.8-23.8l-0.4-6c-0.1-2.1-0.1-4.2-0.1-6.3c0-2.1,0.1-4.2,0.2-6.3c0.1-2.1,0.4-4.2,0.5-6.3
			c1.9-16.8,7.3-33.1,15.7-47.6c8.4-14.5,19.6-27.3,33-37.3c13.3-10,28.8-17.3,45-21.1c8.1-1.9,16.3-3,24.7-3.3
			c8.7-0.2,17.5,0.6,26.1,2.5c8.5,2,16.8,5,24.6,9.1c7.8,4,15,9,21.4,14.8c6.5,5.8,12.2,12.5,17,19.7c4.7,7.3,8.7,15.1,11.4,23.4
			c2.8,8.2,4.6,16.8,5.1,25.4l0.2,3.2l0.1,3.4c0,1.1,0,2.3-0.1,3.4c0,1.1-0.1,2.3-0.2,3.4c-0.3,4.6-1.1,9.2-2.2,13.6
			c-2.1,9-5.8,17.5-10.6,25.4c-4.9,7.8-10.9,14.8-17.9,20.7c-13.9,11.9-32,19-50.2,20c-0.6,0-1.1,0.1-1.7,0.1l-1.8,0l-3.7,0l-1.8,0
			l-1.8-0.2l-3.7-0.4c-4.9-0.6-9.7-1.8-14.3-3.4c-9.3-3.2-17.9-8.2-25.2-14.7c-7.3-6.5-13.3-14.4-17.5-23.3
			c-4.2-8.8-6.6-18.6-7.1-28.3c-0.6-13.8,10-25.5,23.8-26.1c13.7-0.6,25.3,9.9,26.1,23.6l0,0.2c0.2,3.2,0.9,6.2,2.3,9
			c1.4,2.8,3.3,5.3,5.7,7.4c2.4,2.1,5.1,3.6,8.1,4.6c1.5,0.5,3,0.8,4.5,1c0.4,0,0.8,0.1,1.2,0.1l0.6,0.1l0.6,0c0.4,0,0.8,0,1.2,0
			l0.6,0c0.2,0,0.5,0,0.7-0.1c7.6-0.6,14.7-3.5,20.4-8.5c2.9-2.4,5.3-5.4,7.2-8.6c1.9-3.2,3.3-6.7,4.1-10.3c0.4-1.8,0.7-3.6,0.7-5.5
			c0-0.5,0-0.9,0-1.4c0-0.5,0-0.9,0-1.4l0-1.4l-0.1-1.6c-0.4-4.3-1.3-8.4-2.8-12.4c-1.4-4-3.4-7.7-5.8-11.2
			c-2.4-3.4-5.2-6.6-8.4-9.4c-6.4-5.5-14.1-9.3-22.2-10.9c-4.1-0.8-8.2-1.1-12.4-0.9c-4.5,0.3-9.2,1-13.6,2.2
			c-8.8,2.3-17.1,6.5-24.3,12.2c-7.1,5.7-13.1,12.8-17.4,20.8c-4.3,8-6.9,16.7-7.6,25.7l-0.2,3.4l0,3.4l0.2,3.4l0.3,3.7
			c0.6,4.9,1.5,9.6,2.7,14.3c5.2,18.6,16.7,35.4,32.1,46.8c3.8,2.9,7.9,5.5,12.1,7.7c4.2,2.2,8.6,4,13.1,5.5
			c4.5,1.5,9.1,2.6,13.8,3.3c4.7,0.7,9.4,1.1,14.1,1c1.2,0,2.4-0.1,3.5-0.1l1.8-0.1l1.9-0.2l3.8-0.4l3.8-0.5c2.5-0.3,5-0.9,7.4-1.4
			c1.2-0.2,2.4-0.6,3.7-0.9c1.2-0.3,2.5-0.6,3.6-1l3.6-1.1c1.2-0.3,2.4-0.8,3.5-1.3c2.4-0.8,4.7-1.8,7-2.8c4.6-2.1,9-4.3,13.3-7
			c8.6-5.1,16.3-11.5,23.3-18.7c0.9-0.9,1.7-1.8,2.5-2.8l1.3-1.4c0.4-0.5,0.8-1,1.2-1.4l2.4-2.9l2.2-3l1.1-1.5l1-1.5l2.1-3.1
			l1.9-3.2c0.3-0.5,0.7-1,1-1.6l0.9-1.6c9.6-17.3,14.2-36.9,13.8-56.4l-0.2-3.7l-0.1-1.8c0-0.6-0.1-1.3-0.2-2l-0.4-4.1
			c-0.1-1.4-0.2-2.7-0.4-4l-0.6-4c-0.2-1.3-0.3-2.7-0.6-4l-0.7-4c-0.2-1.3-0.5-2.7-0.8-4c-2.2-10.5-5.4-20.7-9.4-30.4
			c-4-9.7-8.9-18.9-14.6-27.5c-5.7-8.6-12.2-16.5-19.7-23.6c-7.4-7.1-15.7-13.3-24.6-18.6l-3.4-1.9c-1.1-0.7-2.2-1.3-3.4-1.9l-7-3.5
			l-7.2-3.1l-1.8-0.8l-1.9-0.7l-3.7-1.3l-3.7-1.3l-3.8-1.1l-3.8-1.1c-1.3-0.4-2.5-0.8-3.8-1.1l-7.8-1.9c-1.3-0.4-2.6-0.6-3.9-0.9
			l-4-0.8l-4-0.8c-1.3-0.3-2.7-0.4-4-0.7l-8.1-1.3l-8.2-1l-4.1-0.5c-1.4-0.2-2.8-0.3-4.1-0.4c-22-2.2-44.7-3-67.9-2.9l-2,0l-1.8-0.1
			c-10.6-0.6-21.3-0.9-31.9-0.8c-10.7,0.2-21.3,0.8-31.9,1.8l-8,0.8l-8,1.1c-2.7,0.3-5.3,0.8-7.9,1.2l-4,0.6l-3.9,0.8l-4,0.8l-2,0.4
			l-2,0.5l-7.9,1.8l-7.8,2.1c-2.6,0.7-5.1,1.5-7.7,2.3c-10.3,3.2-20.3,7-30.1,11.5c-9.7,4.5-19,9.8-27.8,15.8
			c-8.7,6-16.9,12.7-24.3,20.1c-7.4,7.4-13.9,15.4-19.5,23.9c-5.6,8.5-10.3,17.4-13.9,26.7l-2.5,7l-1,3.4l-0.5,1.7l-0.4,1.7
			l-0.9,3.5c-0.3,1.2-0.5,2.3-0.7,3.5c-0.5,2.3-0.8,4.7-1.2,7.1c-1.3,9.5-1.2,19.2,0,28.8l0.6,3.6l0.3,1.8l0.4,1.8l0.7,3.6l0.9,3.5
			l0.4,1.8c0.2,0.6,0.4,1.2,0.5,1.7l1.1,3.5l1.2,3.4l0.6,1.7c0.2,0.6,0.5,1.1,0.7,1.7l1.4,3.4c0.5,1.1,1,2.2,1.6,3.3
			c1,2.2,2.2,4.3,3.4,6.5c2.5,4.2,5,8.4,8,12.3c5.8,7.9,12.8,15,20.4,21.2c7.7,6.2,16.2,11.3,25.2,15.4l3.4,1.4
			c1.1,0.5,2.3,1,3.5,1.4l3.5,1.3l0.9,0.3l0.8,0.2l1.7,0.5c4.5,1.3,9,2.4,13.7,2.9c18.5,2.5,37.8-1.4,54.4-10.6
			c16.6-9.2,30-23.9,37.8-41.4c0.5-1.1,0.9-2.2,1.4-3.3c0.2-0.6,0.5-1.1,0.7-1.7l0.6-1.7l0.6-1.7l0.3-0.9l0.2-0.8
			c0.3-1.1,0.7-2.1,0.9-3.2c1.1-4.3,1.8-8.7,2-13.1c0.5-8.8-0.9-17.8-4-26.3c-3-8.4-7.9-16.3-14-22.9c-6.1-6.6-13.6-12-21.8-15.7
			c-2.1-0.9-4.2-1.8-6.4-2.5c-1.1-0.4-2.1-0.6-3.1-1c-1-0.3-2-0.5-3-0.7c-4-0.8-8.1-1.1-12.3-1c-4.1,0.2-8.2,0.9-12.2,2.1
			c-4,1.2-7.8,2.9-11.4,5.1c-3.6,2.2-6.9,4.7-9.8,7.7c-1.5,1.5-2.8,3.1-4.1,4.7c-1.2,1.7-2.4,3.4-3.5,5.2c-1.1,1.8-2,3.7-2.8,5.6
			c-0.4,1-0.8,1.9-1.1,2.9l-0.5,1.5c-0.2,0.5-0.3,0.9-0.4,1.4c-1,3.6-1.4,7.2-1.3,10.9c0.2,7.3,2.9,14.6,7.5,20.4
			c1.1,1.4,2.4,2.8,3.7,4.1c1.4,1.2,2.8,2.4,4.3,3.4c1.5,1,3.1,1.9,4.8,2.7l1.3,0.6l1.3,0.5c0.4,0.2,0.9,0.3,1.3,0.5
			c0.4,0.1,0.9,0.3,1.3,0.4c3,0.9,6,1.2,9.1,0.8c3-0.3,6-1.3,8.7-2.8c2.7-1.5,5.1-3.5,7-5.8c1.9-2.4,3.3-5.1,4.2-8.1l0-0.1
			c4-13.2,18-20.7,31.2-16.6C588.2,518.3,595.6,532.3,591.6,545.5L591.6,545.5z"/>
	</g>
</g>
</svg>
